<svg width="37" height="37" viewBox="0 0 37 37" fill="none" xmlns="http://www.w3.org/2000/svg">
<ellipse cx="18.5" cy="18.5319" rx="18.5" ry="18.4681" fill="#9AD7D8"/>
<path fill-rule="evenodd" clip-rule="evenodd" d="M14.154 8.07144C15.2781 8.01978 15.6365 8.0083 18.5 8.0083C21.3635 8.0083 21.7219 8.02074 22.8451 8.07144C23.9682 8.12215 24.7349 8.30105 25.4057 8.56031C26.1082 8.82531 26.7455 9.23955 27.2726 9.77529C27.8092 10.3005 28.2232 10.9358 28.4877 11.638C28.7484 12.3076 28.9267 13.073 28.9784 14.1923C29.0302 15.3164 29.0417 15.6742 29.0417 18.5318C29.0417 21.3904 29.0292 21.7482 28.9784 22.8704C28.9276 23.9897 28.7484 24.755 28.4877 25.4247C28.2232 26.127 27.8086 26.7633 27.2726 27.2893C26.7455 27.825 26.1082 28.2383 25.4057 28.5024C24.7349 28.7626 23.9682 28.9405 22.847 28.9922C21.7219 29.0438 21.3635 29.0553 18.5 29.0553C15.6365 29.0553 15.2781 29.0429 14.154 28.9922C13.0327 28.9415 12.266 28.7626 11.5952 28.5024C10.8917 28.2383 10.2543 27.8243 9.72741 27.2893C9.19111 26.7638 8.77609 26.1278 8.51129 25.4257C8.25158 24.756 8.07333 23.9906 8.02158 22.8713C7.96983 21.7472 7.95833 21.3894 7.95833 18.5318C7.95833 15.6732 7.97079 15.3154 8.02158 14.1942C8.07237 13.073 8.25158 12.3076 8.51129 11.638C8.77648 10.9358 9.19182 10.2999 9.72837 9.77434C10.2545 9.23907 10.8913 8.82478 11.5942 8.56031C12.2651 8.30105 13.0317 8.1231 14.153 8.07144H14.154ZM22.7598 9.96567C21.6481 9.91497 21.3146 9.90445 18.5 9.90445C15.6854 9.90445 15.3519 9.91497 14.2402 9.96567C13.2119 10.0126 12.6542 10.1838 12.2823 10.3283C11.7907 10.5196 11.439 10.7463 11.07 11.1147C10.7203 11.4543 10.4511 11.8678 10.2823 12.3249C10.1376 12.696 9.96604 13.2528 9.91908 14.2794C9.86829 15.3891 9.85774 15.722 9.85774 18.5318C9.85774 21.3416 9.86829 21.6745 9.91908 22.7843C9.96604 23.8108 10.1376 24.3676 10.2823 24.7388C10.451 25.1951 10.7202 25.6094 11.07 25.949C11.4102 26.2982 11.8252 26.567 12.2823 26.7354C12.6542 26.8798 13.2119 27.0511 14.2402 27.098C15.3519 27.1487 15.6844 27.1592 18.5 27.1592C21.3156 27.1592 21.6481 27.1487 22.7598 27.098C23.7881 27.0511 24.3458 26.8798 24.7177 26.7354C25.2093 26.544 25.561 26.3173 25.93 25.949C26.2797 25.6094 26.549 25.1951 26.7177 24.7388C26.8624 24.3676 27.034 23.8108 27.0809 22.7843C27.1317 21.6745 27.1422 21.3416 27.1422 18.5318C27.1422 15.722 27.1317 15.3891 27.0809 14.2794C27.034 13.2528 26.8624 12.696 26.7177 12.3249C26.526 11.8341 26.2989 11.483 25.93 11.1147C25.5897 10.7655 25.1755 10.4968 24.7177 10.3283C24.3458 10.1838 23.7881 10.0126 22.7598 9.96567ZM17.1535 21.7759C17.9055 22.0884 18.7428 22.1306 19.5225 21.8952C20.3021 21.6599 20.9757 21.1617 21.4283 20.4856C21.8808 19.8095 22.0842 18.9976 22.0037 18.1885C21.9232 17.3793 21.5638 16.6232 20.9869 16.0492C20.6191 15.6823 20.1744 15.4014 19.6848 15.2266C19.1952 15.0519 18.6729 14.9876 18.1555 15.0386C17.638 15.0895 17.1383 15.2544 16.6924 15.5213C16.2464 15.7881 15.8653 16.1504 15.5764 16.582C15.2875 17.0135 15.0981 17.5037 15.0217 18.0171C14.9454 18.5305 14.984 19.0544 15.1348 19.5512C15.2857 20.0479 15.545 20.5051 15.894 20.8898C16.2431 21.2745 16.6732 21.5771 17.1535 21.7759ZM14.6686 14.707C15.1717 14.2047 15.7691 13.8063 16.4264 13.5344C17.0838 13.2626 17.7884 13.1227 18.5 13.1227C19.2116 13.1227 19.9161 13.2626 20.5735 13.5344C21.2309 13.8063 21.8283 14.2047 22.3314 14.707C22.8346 15.2093 23.2337 15.8056 23.506 16.4618C23.7783 17.1181 23.9184 17.8215 23.9184 18.5318C23.9184 19.2421 23.7783 19.9455 23.506 20.6018C23.2337 21.2581 22.8346 21.8544 22.3314 22.3566C21.3153 23.371 19.9371 23.9409 18.5 23.9409C17.0629 23.9409 15.6847 23.371 14.6686 22.3566C13.6524 21.3422 13.0816 19.9664 13.0816 18.5318C13.0816 17.0972 13.6524 15.7214 14.6686 14.707ZM25.1202 13.9283C25.2448 13.8108 25.3447 13.6696 25.4137 13.513C25.4827 13.3564 25.5196 13.1876 25.5221 13.0165C25.5246 12.8454 25.4927 12.6755 25.4282 12.517C25.3638 12.3584 25.2682 12.2144 25.147 12.0934C25.0258 11.9724 24.8815 11.8769 24.7226 11.8126C24.5638 11.7482 24.3937 11.7164 24.2223 11.7189C24.0509 11.7214 23.8817 11.7582 23.7249 11.8271C23.568 11.896 23.4265 11.9957 23.3089 12.1201C23.0802 12.3622 22.9549 12.6837 22.9598 13.0165C22.9647 13.3492 23.0992 13.667 23.3349 13.9023C23.5707 14.1376 23.889 14.2719 24.2223 14.2768C24.5556 14.2816 24.8777 14.1566 25.1202 13.9283Z" fill="white"/>
</svg>
