<svg width="300" height="311" viewBox="0 0 300 311" fill="none" xmlns="http://www.w3.org/2000/svg">
<path fill-rule="evenodd" clip-rule="evenodd" d="M189.595 14.3506C191.749 9.80092 192.857 4.92457 192.857 0H257.143H300V75H257.143V310.714H42.8571V75H0V0H42.8571L107.143 -3.27835e-06C107.143 4.92457 108.251 9.80092 110.405 14.3506C112.559 18.9003 115.716 23.0343 119.695 26.5165C123.675 29.9987 128.4 32.7609 133.599 34.6455C138.799 36.53 144.372 37.5 150 37.5C155.628 37.5 161.201 36.53 166.401 34.6455C171.6 32.7609 176.325 29.9987 180.305 26.5165C184.284 23.0343 187.441 18.9003 189.595 14.3506Z" fill="#3B4264"/>
<path d="M100.582 87.6133C100.582 87.6367 100.586 87.668 100.594 87.707C100.602 87.7383 100.605 87.7734 100.605 87.8125C100.605 87.9766 100.539 88.1211 100.406 88.2461C100.281 88.3711 100.141 88.4336 99.9844 88.4336C99.8594 88.4336 99.7422 88.3945 99.6328 88.3164C99.5312 88.2383 99.457 88.1328 99.4102 88C99.3086 87.7031 99.2109 87.3867 99.1172 87.0508C99.0234 86.707 98.9375 86.3711 98.8594 86.043C98.7891 85.7148 98.7227 85.4062 98.6602 85.1172C98.5977 84.8281 98.5508 84.582 98.5195 84.3789C98.0742 84.4023 97.5664 84.4219 96.9961 84.4375C96.4258 84.4453 95.8125 84.4492 95.1562 84.4492L94.7695 98.9219C95.4102 98.9453 96.0273 98.9922 96.6211 99.0625C96.793 99.0781 96.9258 99.1445 97.0195 99.2617C97.1211 99.3711 97.1719 99.5039 97.1719 99.6602C97.1719 99.8555 97.1055 100.008 96.9727 100.117C96.8477 100.234 96.7148 100.293 96.5742 100.293H96.5039C95.8711 100.215 95.2461 100.16 94.6289 100.129C94.0117 100.105 93.3945 100.094 92.7773 100.094C92.1523 100.094 91.5391 100.105 90.9375 100.129C90.3359 100.16 89.7344 100.215 89.1328 100.293H89.0625C88.8906 100.293 88.7422 100.227 88.6172 100.094C88.5 99.9609 88.4414 99.8164 88.4414 99.6602C88.4414 99.5039 88.4922 99.3711 88.5938 99.2617C88.7031 99.1445 88.8359 99.0781 88.9922 99.0625C89.5938 98.9922 90.1836 98.9453 90.7617 98.9219L91.0312 84.3789C90.3672 84.3555 89.7422 84.3281 89.1562 84.2969C88.5781 84.2578 88.0586 84.2188 87.5977 84.1797C87.5508 84.3906 87.4922 84.6484 87.4219 84.9531C87.3594 85.2578 87.2852 85.582 87.1992 85.9258C87.1211 86.2695 87.0391 86.6211 86.9531 86.9805C86.8672 87.332 86.7773 87.6641 86.6836 87.9766C86.6445 88.1094 86.5703 88.2188 86.4609 88.3047C86.3594 88.3906 86.2422 88.4336 86.1094 88.4336C85.9297 88.4336 85.7812 88.3711 85.6641 88.2461C85.5469 88.1133 85.4883 87.9688 85.4883 87.8125C85.4883 87.7891 85.4883 87.7617 85.4883 87.7305C85.4883 87.6914 85.4961 87.6602 85.5117 87.6367C85.6289 87.2227 85.7461 86.7695 85.8633 86.2773C85.9805 85.7852 86.0859 85.3242 86.1797 84.8945C86.2812 84.4648 86.3633 84.1055 86.4258 83.8164C86.4883 83.5273 86.5195 83.3789 86.5195 83.3711C86.5586 83.2227 86.6289 83.1055 86.7305 83.0195C86.8398 82.9336 86.9688 82.8906 87.1172 82.8906H87.2109C87.6172 82.9453 88.1094 82.9922 88.6875 83.0312C89.2734 83.0703 89.9023 83.1055 90.5742 83.1367C91.2539 83.1602 91.957 83.1797 92.6836 83.1953C93.4102 83.2109 94.1211 83.2188 94.8164 83.2188C95.668 83.2188 96.4531 83.2109 97.1719 83.1953C97.8906 83.1719 98.4922 83.1406 98.9766 83.1016H99.0234C99.1641 83.1016 99.293 83.1523 99.4102 83.2539C99.5273 83.3477 99.5977 83.4648 99.6211 83.6055C99.6211 83.6133 99.6328 83.6797 99.6562 83.8047C99.6797 83.9297 99.7109 84.0977 99.75 84.3086C99.7891 84.5195 99.8359 84.7617 99.8906 85.0352C99.9531 85.3086 100.02 85.5938 100.09 85.8906C100.16 86.1797 100.234 86.4766 100.312 86.7812C100.398 87.0781 100.488 87.3555 100.582 87.6133ZM117.023 88.3867C117.023 88.5273 116.977 88.6562 116.883 88.7734C116.797 88.8906 116.676 88.9609 116.52 88.9844C116.246 89.0469 115.973 89.0977 115.699 89.1367C115.426 89.168 115.156 89.2031 114.891 89.2422L114.703 98.9453C114.977 98.9453 115.254 98.9531 115.535 98.9688C115.824 98.9766 116.105 99 116.379 99.0391C116.551 99.0547 116.684 99.125 116.777 99.25C116.879 99.3672 116.93 99.4961 116.93 99.6367C116.93 99.832 116.863 99.9844 116.73 100.094C116.605 100.211 116.473 100.27 116.332 100.27H116.262C115.941 100.23 115.625 100.203 115.312 100.188C115.008 100.172 114.707 100.164 114.41 100.164C113.871 100.164 113.336 100.191 112.805 100.246C112.281 100.301 111.762 100.387 111.246 100.504H111.117C110.953 100.504 110.809 100.441 110.684 100.316C110.559 100.199 110.496 100.062 110.496 99.9062V99.8828L110.566 97.7383C110.074 98.6367 109.5 99.3242 108.844 99.8008C108.188 100.27 107.457 100.504 106.652 100.504C106.145 100.504 105.695 100.422 105.305 100.258C104.922 100.094 104.582 99.875 104.285 99.6016C103.996 99.3203 103.75 99 103.547 98.6406C103.352 98.2734 103.191 97.8906 103.066 97.4922C102.949 97.0859 102.863 96.6758 102.809 96.2617C102.754 95.8477 102.727 95.4531 102.727 95.0781C102.727 94.0547 102.824 93.0508 103.02 92.0664C103.223 91.082 103.523 90.1523 103.922 89.2773L101.812 89.2188C101.641 89.2031 101.496 89.1406 101.379 89.0312C101.27 88.9141 101.215 88.7695 101.215 88.5977C101.215 88.4414 101.273 88.3047 101.391 88.1875C101.508 88.0625 101.656 88 101.836 88L104.93 88.0703C105.102 88.0938 105.242 88.1641 105.352 88.2812C105.469 88.3906 105.527 88.5273 105.527 88.6914C105.527 88.7539 105.516 88.8125 105.492 88.8672C105.477 88.9141 105.457 88.9609 105.434 89.0078C105.285 89.1562 105.145 89.3789 105.012 89.6758C104.879 89.9727 104.758 90.3125 104.648 90.6953C104.539 91.0703 104.441 91.4727 104.355 91.9023C104.27 92.3242 104.195 92.7383 104.133 93.1445C104.07 93.543 104.023 93.9141 103.992 94.2578C103.961 94.6016 103.945 94.8828 103.945 95.1016C103.945 95.5859 103.984 96.0781 104.062 96.5781C104.148 97.0703 104.293 97.5195 104.496 97.9258C104.699 98.3242 104.973 98.6523 105.316 98.9102C105.66 99.1602 106.098 99.2852 106.629 99.2852C107.105 99.2852 107.559 99.1484 107.988 98.875C108.418 98.5938 108.805 98.1953 109.148 97.6797C109.5 97.1641 109.805 96.5352 110.062 95.793C110.328 95.0508 110.539 94.2148 110.695 93.2852L110.836 88.5742C110.836 88.4023 110.902 88.2656 111.035 88.1641C111.168 88.0547 111.309 88 111.457 88H111.527C111.793 88.0391 112.062 88.0664 112.336 88.082C112.609 88.0898 112.895 88.0938 113.191 88.0938C113.668 88.0938 114.164 88.0703 114.68 88.0234C115.203 87.9766 115.746 87.8984 116.309 87.7891C116.324 87.7891 116.34 87.7852 116.355 87.7773C116.371 87.7695 116.387 87.7656 116.402 87.7656C116.582 87.7656 116.73 87.832 116.848 87.9648C116.965 88.0898 117.023 88.2305 117.023 88.3867ZM134.461 91.1641C134.344 90.8125 134.168 90.5078 133.934 90.25C133.699 89.9922 133.43 89.7773 133.125 89.6055C132.828 89.4336 132.508 89.3086 132.164 89.2305C131.82 89.1445 131.473 89.1016 131.121 89.1016C130.59 89.1016 130.117 89.1875 129.703 89.3594C129.289 89.5234 128.926 89.75 128.613 90.0391C128.301 90.3203 128.031 90.6523 127.805 91.0352C127.586 91.4102 127.406 91.8086 127.266 92.2305C127.125 92.6445 127.023 93.0703 126.961 93.5078C126.898 93.9453 126.867 94.3672 126.867 94.7734C126.875 95.3438 126.953 95.8945 127.102 96.4258C127.258 96.9492 127.484 97.418 127.781 97.832C128.086 98.2383 128.453 98.5664 128.883 98.8164C129.32 99.0586 129.824 99.1797 130.395 99.1797C130.918 99.1797 131.383 99.0586 131.789 98.8164C132.195 98.5664 132.551 98.2539 132.855 97.8789C133.168 97.5039 133.43 97.0938 133.641 96.6484C133.852 96.1953 134.02 95.7656 134.145 95.3594C134.27 94.9453 134.355 94.582 134.402 94.2695C134.457 93.9492 134.477 93.7383 134.461 93.6367V91.1641ZM140.051 99.9531H140.004C139.809 99.9375 139.613 99.9258 139.418 99.918C139.23 99.9102 139.047 99.9062 138.867 99.9062C138.367 99.9062 137.898 99.9297 137.461 99.9766C137.023 100.023 136.641 100.074 136.312 100.129C135.992 100.191 135.734 100.246 135.539 100.293C135.352 100.34 135.254 100.363 135.246 100.363C135.223 100.379 135.195 100.387 135.164 100.387C135.133 100.387 135.105 100.387 135.082 100.387C134.902 100.387 134.754 100.32 134.637 100.188C134.52 100.062 134.461 99.9219 134.461 99.7656V97.7734C134.281 98.1484 134.051 98.4961 133.77 98.8164C133.496 99.1367 133.188 99.4141 132.844 99.6484C132.5 99.8828 132.121 100.066 131.707 100.199C131.301 100.34 130.875 100.41 130.43 100.41C129.68 100.41 129.012 100.258 128.426 99.9531C127.84 99.6484 127.34 99.2422 126.926 98.7344C126.52 98.2188 126.207 97.6211 125.988 96.9414C125.77 96.2617 125.656 95.5469 125.648 94.7969C125.648 94.2109 125.695 93.6367 125.789 93.0742C125.891 92.5039 126.043 91.9648 126.246 91.457C126.449 90.9414 126.699 90.4648 126.996 90.0273C127.301 89.5898 127.656 89.2148 128.062 88.9023C128.469 88.582 128.926 88.332 129.434 88.1523C129.941 87.9727 130.504 87.8828 131.121 87.8828C131.801 87.8828 132.422 87.9844 132.984 88.1875C133.547 88.3906 134.039 88.6719 134.461 89.0312V84.3086C133.977 84.2852 133.566 84.2539 133.23 84.2148C132.902 84.1758 132.719 84.1562 132.68 84.1562C132.523 84.1328 132.391 84.0625 132.281 83.9453C132.18 83.8281 132.129 83.6914 132.129 83.5352C132.129 83.3633 132.191 83.2227 132.316 83.1133C132.449 82.9961 132.594 82.9375 132.75 82.9375H132.82C132.828 82.9375 132.918 82.9492 133.09 82.9727C133.262 82.9883 133.484 83.0078 133.758 83.0312C134.039 83.0547 134.359 83.0781 134.719 83.1016C135.078 83.1172 135.445 83.125 135.82 83.125C136.188 83.125 136.547 83.1133 136.898 83.0898C137.258 83.0586 137.586 83.0078 137.883 82.9375H138.035C138.215 82.9375 138.359 83 138.469 83.125C138.578 83.2422 138.633 83.3789 138.633 83.5352V98.6758H138.867C139.07 98.6758 139.273 98.6797 139.477 98.6875C139.688 98.6875 139.895 98.6992 140.098 98.7227C140.27 98.7383 140.406 98.8047 140.508 98.9219C140.617 99.0391 140.672 99.1758 140.672 99.332C140.672 99.5195 140.602 99.6719 140.461 99.7891C140.328 99.8984 140.191 99.9531 140.051 99.9531ZM149.379 100.293C149.363 100.293 149.344 100.289 149.32 100.281C149.305 100.273 149.285 100.27 149.262 100.27C148.629 100.145 148.027 100.055 147.457 100C146.887 99.9375 146.32 99.9062 145.758 99.9062C145.188 99.9062 144.621 99.9375 144.059 100C143.496 100.055 142.902 100.145 142.277 100.27C142.254 100.27 142.234 100.273 142.219 100.281C142.203 100.289 142.184 100.293 142.16 100.293C141.98 100.293 141.832 100.227 141.715 100.094C141.605 99.9609 141.551 99.8164 141.551 99.6602C141.551 99.5195 141.594 99.3906 141.68 99.2734C141.773 99.1562 141.891 99.0859 142.031 99.0625C142.305 99 142.578 98.9531 142.852 98.9219C143.133 98.8828 143.406 98.8438 143.672 98.8047V89.8281C143.18 89.8047 142.766 89.7734 142.43 89.7344C142.094 89.6953 141.906 89.6758 141.867 89.6758C141.711 89.6523 141.582 89.582 141.48 89.4648C141.387 89.3477 141.34 89.2109 141.34 89.0547C141.34 88.8594 141.41 88.7109 141.551 88.6094C141.691 88.5078 141.828 88.457 141.961 88.457H142.031C142.039 88.457 142.129 88.4688 142.301 88.4922C142.473 88.5078 142.695 88.5273 142.969 88.5508C143.25 88.5742 143.566 88.5977 143.918 88.6211C144.27 88.6367 144.633 88.6445 145.008 88.6445C145.383 88.6445 145.75 88.6328 146.109 88.6094C146.469 88.5781 146.797 88.5273 147.094 88.457H147.223C147.402 88.457 147.551 88.5195 147.668 88.6445C147.785 88.7617 147.844 88.8984 147.844 89.0547L147.82 98.8047C148.094 98.8438 148.367 98.8828 148.641 98.9219C148.922 98.9531 149.207 99 149.496 99.0625C149.645 99.0859 149.766 99.1562 149.859 99.2734C149.953 99.3906 150 99.5195 150 99.6602C150 99.8398 149.934 99.9883 149.801 100.105C149.668 100.23 149.527 100.293 149.379 100.293ZM147.68 84.8828C147.68 85.1719 147.625 85.4453 147.516 85.7031C147.406 85.9531 147.254 86.1719 147.059 86.3594C146.871 86.5469 146.648 86.6953 146.391 86.8047C146.141 86.9141 145.871 86.9688 145.582 86.9688C145.293 86.9688 145.02 86.9141 144.762 86.8047C144.512 86.6953 144.293 86.5469 144.105 86.3594C143.918 86.1719 143.77 85.9531 143.66 85.7031C143.551 85.4453 143.496 85.1719 143.496 84.8828C143.496 84.5938 143.551 84.3242 143.66 84.0742C143.77 83.8164 143.918 83.5938 144.105 83.4062C144.293 83.2188 144.512 83.0703 144.762 82.9609C145.02 82.8516 145.293 82.7969 145.582 82.7969C145.871 82.7969 146.141 82.8516 146.391 82.9609C146.648 83.0703 146.871 83.2188 147.059 83.4062C147.254 83.5938 147.406 83.8164 147.516 84.0742C147.625 84.3242 147.68 84.5938 147.68 84.8828ZM163.008 96.6602C163.008 97.1055 162.93 97.5156 162.773 97.8906C162.617 98.2578 162.406 98.5938 162.141 98.8984C161.875 99.1953 161.566 99.457 161.215 99.6836C160.871 99.9023 160.504 100.086 160.113 100.234C159.73 100.391 159.34 100.504 158.941 100.574C158.543 100.652 158.16 100.691 157.793 100.691C156.801 100.691 155.867 100.543 154.992 100.246C154.117 99.957 153.324 99.5078 152.613 98.8984C152.613 99.0312 152.613 99.1641 152.613 99.2969C152.613 99.4219 152.621 99.543 152.637 99.6602V99.707C152.637 99.8633 152.582 100.004 152.473 100.129C152.371 100.254 152.242 100.316 152.086 100.316C151.906 100.316 151.75 100.262 151.617 100.152C151.492 100.051 151.422 99.9219 151.406 99.7656C151.391 99.6094 151.383 99.4531 151.383 99.2969C151.383 99.1328 151.383 98.9688 151.383 98.8047C151.383 98.5156 151.387 98.2305 151.395 97.9492C151.41 97.668 151.426 97.418 151.441 97.1992C151.457 96.9727 151.469 96.7891 151.477 96.6484C151.492 96.5 151.504 96.418 151.512 96.4023C151.527 96.2461 151.59 96.1172 151.699 96.0156C151.816 95.9062 151.953 95.8516 152.109 95.8516C152.305 95.8516 152.457 95.9141 152.566 96.0391C152.676 96.1641 152.73 96.3008 152.73 96.4492V96.5195C152.723 96.582 152.715 96.6523 152.707 96.7305C152.699 96.793 152.691 96.8711 152.684 96.9648C152.676 97.0586 152.668 97.1602 152.66 97.2695C153.371 98.0273 154.152 98.582 155.004 98.9336C155.863 99.2773 156.793 99.4492 157.793 99.4492C157.91 99.4492 158.062 99.4414 158.25 99.4258C158.438 99.4102 158.633 99.3867 158.836 99.3555C159.047 99.3164 159.258 99.2695 159.469 99.2148C159.68 99.1523 159.867 99.0781 160.031 98.9922C160.203 98.8984 160.34 98.7891 160.441 98.6641C160.551 98.5391 160.605 98.3906 160.605 98.2188C160.605 98.0469 160.527 97.8945 160.371 97.7617C160.223 97.6211 160.031 97.4961 159.797 97.3867C159.562 97.2773 159.301 97.1836 159.012 97.1055C158.73 97.0273 158.453 96.9609 158.18 96.9062C157.914 96.8516 157.672 96.8086 157.453 96.7773C157.242 96.7461 157.086 96.7227 156.984 96.707C156.312 96.6367 155.648 96.5078 154.992 96.3203C154.344 96.125 153.758 95.8594 153.234 95.5234C152.711 95.1875 152.289 94.7734 151.969 94.2812C151.648 93.7891 151.488 93.207 151.488 92.5352C151.488 91.8477 151.629 91.2305 151.91 90.6836C152.191 90.1289 152.559 89.6602 153.012 89.2773C153.473 88.8945 153.996 88.6016 154.582 88.3984C155.176 88.1953 155.781 88.0938 156.398 88.0938C157.211 88.0938 157.98 88.1953 158.707 88.3984C159.441 88.5938 160.113 88.9023 160.723 89.3242C160.793 89.1523 160.875 88.9805 160.969 88.8086C161.062 88.6289 161.156 88.457 161.25 88.293C161.312 88.1914 161.391 88.1172 161.484 88.0703C161.586 88.0234 161.684 88 161.777 88C161.957 88 162.105 88.0625 162.223 88.1875C162.34 88.3047 162.398 88.4414 162.398 88.5977C162.398 88.7227 162.367 88.8281 162.305 88.9141C162.008 89.4453 161.758 89.9844 161.555 90.5312C161.359 91.0703 161.227 91.6172 161.156 92.1719C161.133 92.3203 161.062 92.4453 160.945 92.5469C160.828 92.6484 160.691 92.6992 160.535 92.6992C160.363 92.6992 160.219 92.6367 160.102 92.5117C159.984 92.3789 159.926 92.2344 159.926 92.0781V91.9844C160.012 91.5 160.125 91.0117 160.266 90.5195C159.703 90.0742 159.09 89.7656 158.426 89.5938C157.762 89.4141 157.086 89.3242 156.398 89.3242C156.164 89.3242 155.918 89.3516 155.66 89.4062C155.402 89.4531 155.16 89.5352 154.934 89.6523C154.715 89.7617 154.531 89.9102 154.383 90.0977C154.242 90.2852 154.172 90.5156 154.172 90.7891C154.172 91.0312 154.25 91.2461 154.406 91.4336C154.562 91.6133 154.762 91.7734 155.004 91.9141C155.246 92.0547 155.516 92.1758 155.812 92.2773C156.117 92.3789 156.414 92.4648 156.703 92.5352C157 92.6055 157.273 92.6641 157.523 92.7109C157.781 92.7578 157.984 92.7969 158.133 92.8281C158.68 92.9375 159.238 93.082 159.809 93.2617C160.387 93.4336 160.91 93.668 161.379 93.9648C161.855 94.2539 162.246 94.6172 162.551 95.0547C162.855 95.4922 163.008 96.0273 163.008 96.6602ZM175.301 93.8125V93.6133C175.301 93.0273 175.238 92.4844 175.113 91.9844C174.988 91.4844 174.789 91.043 174.516 90.6602C174.25 90.2695 173.906 89.9492 173.484 89.6992C173.062 89.4492 172.555 89.2812 171.961 89.1953C171.547 89.2422 171.188 89.3555 170.883 89.5352C170.578 89.7148 170.316 89.9375 170.098 90.2031C169.887 90.4609 169.711 90.7539 169.57 91.082C169.43 91.4102 169.316 91.75 169.23 92.1016C169.152 92.4453 169.094 92.793 169.055 93.1445C169.016 93.4883 168.992 93.8125 168.984 94.1172C169.109 94.1562 169.266 94.1992 169.453 94.2461C169.648 94.293 169.867 94.3398 170.109 94.3867C170.352 94.4258 170.613 94.4609 170.895 94.4922C171.184 94.5156 171.484 94.5273 171.797 94.5273C172.461 94.5273 173.082 94.4648 173.66 94.3398C174.246 94.2148 174.793 94.0391 175.301 93.8125ZM176.496 94.2695C176.473 94.4727 176.363 94.6484 176.168 94.7969C175.973 94.9453 175.727 95.0781 175.43 95.1953C175.133 95.3047 174.805 95.3984 174.445 95.4766C174.094 95.5469 173.746 95.6055 173.402 95.6523C173.059 95.6992 172.742 95.7344 172.453 95.7578C172.164 95.7734 171.938 95.7812 171.773 95.7812C171.203 95.7812 170.676 95.7422 170.191 95.6641C169.715 95.5859 169.32 95.5039 169.008 95.418C169.055 95.9023 169.145 96.3789 169.277 96.8477C169.41 97.3164 169.602 97.7383 169.852 98.1133C170.102 98.4805 170.414 98.7812 170.789 99.0156C171.164 99.2422 171.617 99.3555 172.148 99.3555C172.344 99.3555 172.566 99.332 172.816 99.2852C173.066 99.2305 173.312 99.1562 173.555 99.0625C173.797 98.9609 174.02 98.8438 174.223 98.7109C174.426 98.5703 174.586 98.4141 174.703 98.2422C174.836 98.0859 174.996 98.0078 175.184 98.0078C175.348 98.0078 175.492 98.0742 175.617 98.207C175.742 98.332 175.805 98.4727 175.805 98.6289C175.805 98.793 175.754 98.9219 175.652 99.0156C175.465 99.3047 175.203 99.5508 174.867 99.7539C174.531 99.957 174.168 100.121 173.777 100.246C173.387 100.379 172.992 100.473 172.594 100.527C172.195 100.59 171.832 100.621 171.504 100.621C170.566 100.621 169.695 100.453 168.891 100.117C168.086 99.7891 167.387 99.3359 166.793 98.7578C166.199 98.1797 165.73 97.5 165.387 96.7188C165.051 95.9375 164.883 95.0938 164.883 94.1875C164.883 93.1953 165.031 92.3125 165.328 91.5391C165.625 90.7578 166.047 90.1016 166.594 89.5703C167.141 89.0312 167.805 88.625 168.586 88.3516C169.367 88.0703 170.246 87.9297 171.223 87.9297C172.145 87.9688 172.938 88.125 173.602 88.3984C174.273 88.6719 174.824 89.0508 175.254 89.5352C175.684 90.0195 176 90.6055 176.203 91.293C176.414 91.9727 176.52 92.7383 176.52 93.5898C176.52 93.7852 176.516 93.9414 176.508 94.0586C176.5 94.168 176.496 94.2383 176.496 94.2695ZM193.172 99.4727C193.156 99.6289 193.086 99.7617 192.961 99.8711C192.836 99.9727 192.695 100.023 192.539 100.023H192.492C192.117 99.9844 191.754 99.957 191.402 99.9414C191.059 99.918 190.719 99.9062 190.383 99.9062C189.891 99.9062 189.418 99.9297 188.965 99.9766C188.52 100.016 188.082 100.07 187.652 100.141C187.637 100.141 187.617 100.145 187.594 100.152C187.578 100.16 187.562 100.164 187.547 100.164C187.383 100.164 187.238 100.102 187.113 99.9766C186.988 99.8438 186.926 99.6992 186.926 99.543C186.926 99.4023 186.973 99.2734 187.066 99.1562C187.168 99.0391 187.289 98.9688 187.43 98.9453C187.758 98.8828 188.086 98.8359 188.414 98.8047C188.75 98.7656 189.094 98.7305 189.445 98.6992C189.516 98.457 189.59 98.1289 189.668 97.7148C189.746 97.3008 189.816 96.8555 189.879 96.3789C189.949 95.9023 190.004 95.4219 190.043 94.9375C190.09 94.4531 190.113 94.0195 190.113 93.6367C190.113 93.2383 190.09 92.8047 190.043 92.3359C190.004 91.8672 189.906 91.4297 189.75 91.0234C189.602 90.6094 189.383 90.2656 189.094 89.9922C188.812 89.7188 188.434 89.582 187.957 89.582C187.418 89.582 186.918 89.7148 186.457 89.9805C185.996 90.2461 185.598 90.5859 185.262 91C184.934 91.4062 184.672 91.8555 184.477 92.3477C184.289 92.8398 184.195 93.3125 184.195 93.7656V93.7891L184.172 98.9453C184.312 98.9609 184.449 98.9766 184.582 98.9922C184.715 99 184.848 99.0156 184.98 99.0391C185.137 99.0547 185.266 99.1211 185.367 99.2383C185.477 99.3477 185.531 99.4805 185.531 99.6367C185.531 99.8086 185.465 99.957 185.332 100.082C185.207 100.207 185.066 100.27 184.91 100.27C184.879 100.27 184.855 100.258 184.84 100.234C184.371 100.188 183.891 100.141 183.398 100.094C182.914 100.047 182.402 100.023 181.863 100.023C181.379 100.023 180.867 100.047 180.328 100.094C179.797 100.148 179.227 100.23 178.617 100.34C178.586 100.355 178.547 100.363 178.5 100.363C178.32 100.363 178.176 100.297 178.066 100.164C177.957 100.031 177.902 99.8867 177.902 99.7305C177.902 99.5898 177.945 99.4609 178.031 99.3438C178.117 99.2266 178.234 99.1562 178.383 99.1328C178.672 99.0703 178.949 99.0234 179.215 98.9922C179.48 98.9531 179.746 98.9219 180.012 98.8984V89.9453C179.52 89.9219 179.105 89.8945 178.77 89.8633C178.441 89.8242 178.258 89.7969 178.219 89.7812C178.062 89.7656 177.934 89.6992 177.832 89.582C177.738 89.4648 177.691 89.3281 177.691 89.1719C177.691 88.9844 177.758 88.8359 177.891 88.7266C178.023 88.6094 178.164 88.5508 178.312 88.5508C178.344 88.5508 178.367 88.5586 178.383 88.5742C178.391 88.5742 178.48 88.582 178.652 88.5977C178.824 88.6133 179.047 88.6328 179.32 88.6562C179.602 88.6797 179.918 88.6992 180.27 88.7148C180.621 88.7305 180.984 88.7383 181.359 88.7383C181.734 88.7383 182.102 88.7305 182.461 88.7148C182.82 88.6914 183.148 88.6445 183.445 88.5742C183.461 88.5742 183.477 88.5703 183.492 88.5625C183.516 88.5547 183.539 88.5508 183.562 88.5508C183.742 88.5508 183.891 88.6172 184.008 88.75C184.133 88.875 184.195 89.0156 184.195 89.1719V90.3789C184.648 89.7148 185.188 89.2148 185.812 88.8789C186.445 88.5352 187.16 88.3633 187.957 88.3633C188.426 88.3633 188.832 88.4453 189.176 88.6094C189.527 88.7656 189.828 88.9805 190.078 89.2539C190.336 89.5273 190.543 89.8438 190.699 90.2031C190.863 90.5547 190.992 90.9258 191.086 91.3164C191.188 91.707 191.254 92.1055 191.285 92.5117C191.324 92.9102 191.344 93.2852 191.344 93.6367C191.344 94.0273 191.324 94.457 191.285 94.9258C191.246 95.3867 191.195 95.8477 191.133 96.3086C191.078 96.7695 191.012 97.207 190.934 97.6211C190.863 98.0352 190.793 98.3867 190.723 98.6758C191.02 98.6914 191.324 98.707 191.637 98.7227C191.957 98.7383 192.281 98.7656 192.609 98.8047C192.789 98.8203 192.926 98.8984 193.02 99.0391C193.121 99.1719 193.172 99.3164 193.172 99.4727ZM189.973 84.0977C189.973 84.5508 189.898 84.9844 189.75 85.3984C189.609 85.8047 189.41 86.1641 189.152 86.4766C188.895 86.7891 188.59 87.0391 188.238 87.2266C187.887 87.4141 187.504 87.5078 187.09 87.5078C186.684 87.5078 186.324 87.4258 186.012 87.2617C185.699 87.0898 185.418 86.875 185.168 86.6172C184.926 86.3516 184.703 86.0625 184.5 85.75C184.305 85.4297 184.121 85.1211 183.949 84.8242C183.887 84.707 183.824 84.582 183.762 84.4492C183.699 84.3164 183.625 84.1914 183.539 84.0742C183.461 83.957 183.367 83.8594 183.258 83.7812C183.156 83.7031 183.035 83.6641 182.895 83.6641C182.684 83.6641 182.523 83.7227 182.414 83.8398C182.312 83.9492 182.246 84.0938 182.215 84.2734C182.184 84.4531 182.18 84.6523 182.203 84.8711C182.227 85.082 182.266 85.293 182.32 85.5039C182.375 85.707 182.434 85.8945 182.496 86.0664C182.566 86.2305 182.629 86.3516 182.684 86.4297C182.723 86.4922 182.75 86.5469 182.766 86.5938C182.789 86.6406 182.801 86.6953 182.801 86.7578C182.801 86.9375 182.734 87.0898 182.602 87.2148C182.477 87.332 182.336 87.3906 182.18 87.3906C181.984 87.3906 181.816 87.293 181.676 87.0977C181.512 86.8789 181.375 86.6328 181.266 86.3594C181.164 86.0859 181.082 85.8125 181.02 85.5391C180.965 85.2578 180.926 84.9883 180.902 84.7305C180.887 84.4648 180.879 84.2305 180.879 84.0273C180.879 83.5508 180.945 83.1133 181.078 82.7148C181.219 82.3086 181.41 81.9609 181.652 81.6719C181.902 81.3828 182.195 81.1602 182.531 81.0039C182.875 80.8398 183.254 80.7578 183.668 80.7578C184.223 80.7578 184.688 80.8438 185.062 81.0156C185.438 81.1797 185.75 81.3906 186 81.6484C186.258 81.9062 186.461 82.1836 186.609 82.4805C186.766 82.7773 186.902 83.0547 187.02 83.3125C187.168 83.625 187.289 83.8555 187.383 84.0039C187.484 84.1445 187.59 84.2148 187.699 84.2148C187.863 84.2148 188 84.1797 188.109 84.1094C188.219 84.0312 188.305 83.9336 188.367 83.8164C188.438 83.6992 188.484 83.5742 188.508 83.4414C188.539 83.3008 188.555 83.168 188.555 83.043C188.555 82.8398 188.523 82.6406 188.461 82.4453C188.406 82.2422 188.32 82.0586 188.203 81.8945C188.148 81.8477 188.109 81.793 188.086 81.7305C188.062 81.6602 188.051 81.5938 188.051 81.5312C188.051 81.3516 188.117 81.2031 188.25 81.0859C188.383 80.9688 188.527 80.9102 188.684 80.9102C188.777 80.9102 188.863 80.9336 188.941 80.9805C189.027 81.0195 189.109 81.0742 189.188 81.1445C189.477 81.6055 189.68 82.0938 189.797 82.6094C189.914 83.1172 189.973 83.6133 189.973 84.0977ZM205.512 94.2109C205.512 93.8281 205.469 93.4414 205.383 93.0508C205.297 92.6602 205.172 92.2812 205.008 91.9141C204.844 91.5469 204.645 91.2031 204.41 90.8828C204.176 90.5625 203.91 90.2852 203.613 90.0508C203.324 89.8086 203.004 89.6211 202.652 89.4883C202.309 89.3477 201.941 89.2773 201.551 89.2773C201.113 89.2773 200.73 89.3516 200.402 89.5C200.082 89.6406 199.801 89.8359 199.559 90.0859C199.316 90.3281 199.117 90.6094 198.961 90.9297C198.805 91.25 198.68 91.5898 198.586 91.9492C198.492 92.3086 198.426 92.6719 198.387 93.0391C198.348 93.4062 198.328 93.7578 198.328 94.0938C198.328 94.4375 198.344 94.8047 198.375 95.1953C198.406 95.5781 198.461 95.9609 198.539 96.3438C198.617 96.7188 198.723 97.082 198.855 97.4336C198.988 97.7852 199.16 98.0938 199.371 98.3594C199.582 98.625 199.836 98.8359 200.133 98.9922C200.438 99.1484 200.797 99.2266 201.211 99.2266C201.891 99.2266 202.496 99.0859 203.027 98.8047C203.566 98.5156 204.02 98.1367 204.387 97.668C204.754 97.1992 205.031 96.6641 205.219 96.0625C205.414 95.4609 205.512 94.8438 205.512 94.2109ZM206.73 94.2109C206.73 95.1484 206.562 96.0078 206.227 96.7891C205.891 97.5703 205.438 98.2422 204.867 98.8047C204.297 99.3594 203.629 99.793 202.863 100.105C202.105 100.418 201.305 100.574 200.461 100.574C199.508 100.574 198.645 100.422 197.871 100.117C197.105 99.8203 196.449 99.3945 195.902 98.8398C195.355 98.2852 194.934 97.6172 194.637 96.8359C194.348 96.0547 194.203 95.1797 194.203 94.2109C194.203 93.2891 194.363 92.4375 194.684 91.6562C195.004 90.875 195.445 90.2031 196.008 89.6406C196.57 89.0703 197.23 88.6289 197.988 88.3164C198.754 87.9961 199.578 87.8359 200.461 87.8359C201.383 87.8359 202.227 88.0078 202.992 88.3516C203.766 88.6875 204.43 89.1484 204.984 89.7344C205.539 90.3125 205.969 90.9883 206.273 91.7617C206.578 92.5352 206.73 93.3516 206.73 94.2109ZM118.395 121.387C118.395 121.527 118.352 121.652 118.266 121.762C118.18 121.871 118.062 121.945 117.914 121.984C117.648 122.047 117.398 122.098 117.164 122.137C116.93 122.168 116.699 122.195 116.473 122.219C116.285 123.062 116.016 123.965 115.664 124.926C115.32 125.879 114.918 126.852 114.457 127.844C113.996 128.828 113.488 129.805 112.934 130.773C112.387 131.742 111.809 132.66 111.199 133.527C111.152 133.598 111.086 133.66 111 133.715C110.922 133.77 110.836 133.797 110.742 133.797C110.633 133.797 110.539 133.777 110.461 133.738C110.391 133.707 110.324 133.66 110.262 133.598C109.77 133.09 109.25 132.477 108.703 131.758C108.164 131.039 107.637 130.211 107.121 129.273C106.613 128.328 106.145 127.262 105.715 126.074C105.293 124.887 104.953 123.57 104.695 122.125C104.523 122.102 104.352 122.082 104.18 122.066C104.016 122.051 103.852 122.023 103.688 121.984C103.531 121.961 103.402 121.895 103.301 121.785C103.207 121.676 103.16 121.543 103.16 121.387C103.16 121.184 103.23 121.031 103.371 120.93C103.512 120.82 103.648 120.766 103.781 120.766C103.797 120.766 103.809 120.77 103.816 120.777C103.832 120.785 103.852 120.789 103.875 120.789C104.383 120.859 104.875 120.918 105.352 120.965C105.836 121.004 106.32 121.023 106.805 121.023C107.289 121.023 107.762 121.004 108.223 120.965C108.691 120.918 109.156 120.859 109.617 120.789C109.641 120.789 109.656 120.785 109.664 120.777C109.68 120.77 109.695 120.766 109.711 120.766C109.891 120.766 110.039 120.828 110.156 120.953C110.273 121.07 110.332 121.215 110.332 121.387C110.332 121.527 110.285 121.656 110.191 121.773C110.098 121.891 109.977 121.961 109.828 121.984C109.492 122.055 109.148 122.102 108.797 122.125C108.867 122.477 108.988 122.945 109.16 123.531C109.332 124.117 109.562 124.777 109.852 125.512C110.023 125.949 110.211 126.375 110.414 126.789C110.625 127.203 110.832 127.594 111.035 127.961C111.246 128.32 111.445 128.648 111.633 128.945C111.828 129.242 111.996 129.496 112.137 129.707C112.488 129.074 112.82 128.434 113.133 127.785C113.445 127.129 113.73 126.484 113.988 125.852C114.254 125.211 114.488 124.586 114.691 123.977C114.895 123.367 115.066 122.781 115.207 122.219C114.98 122.195 114.746 122.168 114.504 122.137C114.262 122.098 114.008 122.047 113.742 121.984C113.594 121.961 113.473 121.891 113.379 121.773C113.285 121.656 113.238 121.527 113.238 121.387C113.238 121.207 113.305 121.059 113.438 120.941C113.578 120.824 113.719 120.766 113.859 120.766C113.883 120.766 113.902 120.77 113.918 120.777C113.934 120.785 113.953 120.789 113.977 120.789C114.344 120.859 114.676 120.914 114.973 120.953C115.27 120.984 115.562 121 115.852 121C116.141 121 116.426 120.984 116.707 120.953C116.996 120.914 117.305 120.859 117.633 120.789C117.656 120.789 117.68 120.785 117.703 120.777C117.727 120.77 117.75 120.766 117.773 120.766C117.945 120.766 118.09 120.832 118.207 120.965C118.332 121.09 118.395 121.23 118.395 121.387ZM126.855 128.898C126.84 128.766 126.828 128.629 126.82 128.488C126.812 128.348 126.809 128.203 126.809 128.055H126.375C126.062 128.055 125.691 128.078 125.262 128.125C124.84 128.172 124.402 128.246 123.949 128.348C123.496 128.449 123.047 128.586 122.602 128.758C122.156 128.922 121.758 129.125 121.406 129.367C121.055 129.602 120.77 129.879 120.551 130.199C120.34 130.52 120.234 130.887 120.234 131.301C120.234 131.52 120.285 131.707 120.387 131.863C120.496 132.02 120.629 132.148 120.785 132.25C120.949 132.344 121.129 132.414 121.324 132.461C121.52 132.5 121.707 132.52 121.887 132.52C122.441 132.52 122.965 132.414 123.457 132.203C123.957 131.984 124.418 131.703 124.84 131.359C125.262 131.008 125.641 130.617 125.977 130.188C126.312 129.758 126.605 129.328 126.855 128.898ZM132.469 132.953H132.422C132.289 132.938 132.152 132.93 132.012 132.93C131.871 132.93 131.734 132.93 131.602 132.93C130.867 132.93 130.16 132.977 129.48 133.07C128.809 133.164 128.133 133.309 127.453 133.504C127.43 133.504 127.406 133.508 127.383 133.516C127.359 133.523 127.328 133.527 127.289 133.527C127.109 133.527 126.961 133.457 126.844 133.316C126.734 133.184 126.68 133.047 126.68 132.906V132.812C126.68 132.797 126.699 132.641 126.738 132.344C126.777 132.039 126.816 131.617 126.855 131.078C126.52 131.453 126.16 131.805 125.777 132.133C125.402 132.453 125.004 132.734 124.582 132.977C124.168 133.211 123.738 133.395 123.293 133.527C122.848 133.668 122.387 133.738 121.91 133.738C121.535 133.738 121.172 133.68 120.82 133.562C120.469 133.453 120.156 133.293 119.883 133.082C119.617 132.871 119.402 132.617 119.238 132.32C119.082 132.016 119.004 131.676 119.004 131.301C119.004 130.715 119.129 130.199 119.379 129.754C119.637 129.309 119.973 128.922 120.387 128.594C120.801 128.258 121.27 127.98 121.793 127.762C122.324 127.535 122.863 127.355 123.41 127.223C123.957 127.082 124.488 126.984 125.004 126.93C125.52 126.867 125.977 126.836 126.375 126.836H126.656C126.656 126.359 126.57 125.895 126.398 125.441C126.234 124.988 126 124.586 125.695 124.234C125.398 123.883 125.043 123.602 124.629 123.391C124.215 123.172 123.758 123.062 123.258 123.062C122.891 123.062 122.531 123.168 122.18 123.379C121.828 123.582 121.516 123.844 121.242 124.164C120.969 124.484 120.746 124.844 120.574 125.242C120.41 125.641 120.328 126.027 120.328 126.402C120.328 126.559 120.262 126.691 120.129 126.801C120.004 126.902 119.863 126.953 119.707 126.953C119.535 126.953 119.387 126.891 119.262 126.766C119.137 126.633 119.074 126.488 119.074 126.332C119.074 125.957 119.141 125.566 119.273 125.16C119.406 124.746 119.598 124.344 119.848 123.953C120.105 123.555 120.414 123.18 120.773 122.828C121.141 122.477 121.555 122.168 122.016 121.902C122.484 121.629 122.996 121.414 123.551 121.258C124.105 121.102 124.695 121.023 125.32 121.023C126.195 121.023 126.941 121.16 127.559 121.434C128.184 121.707 128.703 122.078 129.117 122.547C129.539 123.016 129.871 123.559 130.113 124.176C130.355 124.793 130.539 125.445 130.664 126.133C130.789 126.82 130.867 127.52 130.898 128.23C130.938 128.941 130.957 129.621 130.957 130.27C130.957 130.598 130.953 130.879 130.945 131.113C130.938 131.348 130.934 131.543 130.934 131.699C131.051 131.699 131.168 131.695 131.285 131.688C131.41 131.68 131.531 131.676 131.648 131.676C131.781 131.676 131.918 131.68 132.059 131.688C132.207 131.695 132.352 131.699 132.492 131.699C132.664 131.715 132.801 131.781 132.902 131.898C133.012 132.016 133.066 132.16 133.066 132.332C133.066 132.496 133.008 132.641 132.891 132.766C132.781 132.891 132.641 132.953 132.469 132.953ZM148.746 128.898C148.73 128.766 148.719 128.629 148.711 128.488C148.703 128.348 148.699 128.203 148.699 128.055H148.266C147.953 128.055 147.582 128.078 147.152 128.125C146.73 128.172 146.293 128.246 145.84 128.348C145.387 128.449 144.938 128.586 144.492 128.758C144.047 128.922 143.648 129.125 143.297 129.367C142.945 129.602 142.66 129.879 142.441 130.199C142.23 130.52 142.125 130.887 142.125 131.301C142.125 131.52 142.176 131.707 142.277 131.863C142.387 132.02 142.52 132.148 142.676 132.25C142.84 132.344 143.02 132.414 143.215 132.461C143.41 132.5 143.598 132.52 143.777 132.52C144.332 132.52 144.855 132.414 145.348 132.203C145.848 131.984 146.309 131.703 146.73 131.359C147.152 131.008 147.531 130.617 147.867 130.188C148.203 129.758 148.496 129.328 148.746 128.898ZM154.359 132.953H154.312C154.18 132.938 154.043 132.93 153.902 132.93C153.762 132.93 153.625 132.93 153.492 132.93C152.758 132.93 152.051 132.977 151.371 133.07C150.699 133.164 150.023 133.309 149.344 133.504C149.32 133.504 149.297 133.508 149.273 133.516C149.25 133.523 149.219 133.527 149.18 133.527C149 133.527 148.852 133.457 148.734 133.316C148.625 133.184 148.57 133.047 148.57 132.906V132.812C148.57 132.797 148.59 132.641 148.629 132.344C148.668 132.039 148.707 131.617 148.746 131.078C148.41 131.453 148.051 131.805 147.668 132.133C147.293 132.453 146.895 132.734 146.473 132.977C146.059 133.211 145.629 133.395 145.184 133.527C144.738 133.668 144.277 133.738 143.801 133.738C143.426 133.738 143.062 133.68 142.711 133.562C142.359 133.453 142.047 133.293 141.773 133.082C141.508 132.871 141.293 132.617 141.129 132.32C140.973 132.016 140.895 131.676 140.895 131.301C140.895 130.715 141.02 130.199 141.27 129.754C141.527 129.309 141.863 128.922 142.277 128.594C142.691 128.258 143.16 127.98 143.684 127.762C144.215 127.535 144.754 127.355 145.301 127.223C145.848 127.082 146.379 126.984 146.895 126.93C147.41 126.867 147.867 126.836 148.266 126.836H148.547C148.547 126.359 148.461 125.895 148.289 125.441C148.125 124.988 147.891 124.586 147.586 124.234C147.289 123.883 146.934 123.602 146.52 123.391C146.105 123.172 145.648 123.062 145.148 123.062C144.781 123.062 144.422 123.168 144.07 123.379C143.719 123.582 143.406 123.844 143.133 124.164C142.859 124.484 142.637 124.844 142.465 125.242C142.301 125.641 142.219 126.027 142.219 126.402C142.219 126.559 142.152 126.691 142.02 126.801C141.895 126.902 141.754 126.953 141.598 126.953C141.426 126.953 141.277 126.891 141.152 126.766C141.027 126.633 140.965 126.488 140.965 126.332C140.965 125.957 141.031 125.566 141.164 125.16C141.297 124.746 141.488 124.344 141.738 123.953C141.996 123.555 142.305 123.18 142.664 122.828C143.031 122.477 143.445 122.168 143.906 121.902C144.375 121.629 144.887 121.414 145.441 121.258C145.996 121.102 146.586 121.023 147.211 121.023C148.086 121.023 148.832 121.16 149.449 121.434C150.074 121.707 150.594 122.078 151.008 122.547C151.43 123.016 151.762 123.559 152.004 124.176C152.246 124.793 152.43 125.445 152.555 126.133C152.68 126.82 152.758 127.52 152.789 128.23C152.828 128.941 152.848 129.621 152.848 130.27C152.848 130.598 152.844 130.879 152.836 131.113C152.828 131.348 152.824 131.543 152.824 131.699C152.941 131.699 153.059 131.695 153.176 131.688C153.301 131.68 153.422 131.676 153.539 131.676C153.672 131.676 153.809 131.68 153.949 131.688C154.098 131.695 154.242 131.699 154.383 131.699C154.555 131.715 154.691 131.781 154.793 131.898C154.902 132.016 154.957 132.16 154.957 132.332C154.957 132.496 154.898 132.641 154.781 132.766C154.672 132.891 154.531 132.953 154.359 132.953ZM164.355 124.41C164.34 124.371 164.309 124.297 164.262 124.188C164.223 124.07 164.156 123.938 164.062 123.789C163.969 123.641 163.844 123.484 163.688 123.32C163.531 123.148 163.336 122.992 163.102 122.852C162.875 122.703 162.602 122.578 162.281 122.477C161.961 122.375 161.586 122.316 161.156 122.301C160.641 122.301 160.172 122.375 159.75 122.523C159.336 122.672 158.965 122.879 158.637 123.145C158.309 123.402 158.023 123.707 157.781 124.059C157.547 124.41 157.352 124.793 157.195 125.207C157.039 125.613 156.922 126.039 156.844 126.484C156.773 126.93 156.738 127.375 156.738 127.82C156.738 128.398 156.812 128.961 156.961 129.508C157.109 130.055 157.328 130.543 157.617 130.973C157.914 131.395 158.281 131.734 158.719 131.992C159.164 132.25 159.68 132.379 160.266 132.379C160.688 132.379 161.082 132.289 161.449 132.109C161.816 131.922 162.152 131.676 162.457 131.371C162.762 131.066 163.027 130.719 163.254 130.328C163.488 129.93 163.688 129.523 163.852 129.109C164.016 128.688 164.137 128.273 164.215 127.867C164.301 127.453 164.348 127.074 164.355 126.73V124.41ZM170.039 139.41H169.945C169.672 139.371 169.387 139.34 169.09 139.316C168.801 139.301 168.508 139.293 168.211 139.293C167.852 139.293 167.504 139.301 167.168 139.316C166.832 139.34 166.523 139.363 166.242 139.387C165.969 139.418 165.734 139.445 165.539 139.469C165.344 139.5 165.203 139.52 165.117 139.527C165.086 139.543 165.039 139.551 164.977 139.551H164.953C164.711 139.527 164.551 139.445 164.473 139.305C164.395 139.164 164.355 138.992 164.355 138.789V130.938C164.176 131.305 163.945 131.652 163.664 131.98C163.391 132.301 163.078 132.586 162.727 132.836C162.383 133.078 162.004 133.27 161.59 133.41C161.184 133.551 160.754 133.621 160.301 133.621C159.527 133.621 158.84 133.457 158.238 133.129C157.645 132.809 157.145 132.379 156.738 131.84C156.34 131.301 156.035 130.684 155.824 129.988C155.621 129.285 155.52 128.555 155.52 127.797C155.52 126.891 155.641 126.031 155.883 125.219C156.133 124.398 156.496 123.684 156.973 123.074C157.457 122.457 158.051 121.969 158.754 121.609C159.465 121.25 160.281 121.07 161.203 121.07C161.93 121.109 162.547 121.238 163.055 121.457C163.57 121.668 164.004 121.93 164.355 122.242V121.82C164.355 121.641 164.414 121.492 164.531 121.375C164.656 121.25 164.797 121.188 164.953 121.188C165.016 121.188 165.062 121.195 165.094 121.211C165.391 121.273 165.707 121.32 166.043 121.352C166.387 121.375 166.734 121.387 167.086 121.387C167.438 121.387 167.777 121.379 168.105 121.363C168.441 121.34 168.734 121.316 168.984 121.293C169.281 121.262 169.562 121.227 169.828 121.188H169.922C170.102 121.188 170.25 121.254 170.367 121.387C170.484 121.52 170.543 121.664 170.543 121.82C170.543 121.961 170.492 122.09 170.391 122.207C170.289 122.324 170.164 122.395 170.016 122.418C169.977 122.418 169.82 122.438 169.547 122.477C169.281 122.508 168.941 122.535 168.527 122.559V138.062C168.793 138.078 169.059 138.09 169.324 138.098C169.598 138.113 169.867 138.141 170.133 138.18C170.281 138.203 170.406 138.273 170.508 138.391C170.609 138.516 170.66 138.656 170.66 138.812C170.66 138.969 170.594 139.105 170.461 139.223C170.328 139.348 170.188 139.41 170.039 139.41ZM186.973 121.387C186.973 121.527 186.926 121.656 186.832 121.773C186.746 121.891 186.625 121.961 186.469 121.984C186.195 122.047 185.922 122.098 185.648 122.137C185.375 122.168 185.105 122.203 184.84 122.242L184.652 131.945C184.926 131.945 185.203 131.953 185.484 131.969C185.773 131.977 186.055 132 186.328 132.039C186.5 132.055 186.633 132.125 186.727 132.25C186.828 132.367 186.879 132.496 186.879 132.637C186.879 132.832 186.812 132.984 186.68 133.094C186.555 133.211 186.422 133.27 186.281 133.27H186.211C185.891 133.23 185.574 133.203 185.262 133.188C184.957 133.172 184.656 133.164 184.359 133.164C183.82 133.164 183.285 133.191 182.754 133.246C182.23 133.301 181.711 133.387 181.195 133.504H181.066C180.902 133.504 180.758 133.441 180.633 133.316C180.508 133.199 180.445 133.062 180.445 132.906V132.883L180.516 130.738C180.023 131.637 179.449 132.324 178.793 132.801C178.137 133.27 177.406 133.504 176.602 133.504C176.094 133.504 175.645 133.422 175.254 133.258C174.871 133.094 174.531 132.875 174.234 132.602C173.945 132.32 173.699 132 173.496 131.641C173.301 131.273 173.141 130.891 173.016 130.492C172.898 130.086 172.812 129.676 172.758 129.262C172.703 128.848 172.676 128.453 172.676 128.078C172.676 127.055 172.773 126.051 172.969 125.066C173.172 124.082 173.473 123.152 173.871 122.277L171.762 122.219C171.59 122.203 171.445 122.141 171.328 122.031C171.219 121.914 171.164 121.77 171.164 121.598C171.164 121.441 171.223 121.305 171.34 121.188C171.457 121.062 171.605 121 171.785 121L174.879 121.07C175.051 121.094 175.191 121.164 175.301 121.281C175.418 121.391 175.477 121.527 175.477 121.691C175.477 121.754 175.465 121.812 175.441 121.867C175.426 121.914 175.406 121.961 175.383 122.008C175.234 122.156 175.094 122.379 174.961 122.676C174.828 122.973 174.707 123.312 174.598 123.695C174.488 124.07 174.391 124.473 174.305 124.902C174.219 125.324 174.145 125.738 174.082 126.145C174.02 126.543 173.973 126.914 173.941 127.258C173.91 127.602 173.895 127.883 173.895 128.102C173.895 128.586 173.934 129.078 174.012 129.578C174.098 130.07 174.242 130.52 174.445 130.926C174.648 131.324 174.922 131.652 175.266 131.91C175.609 132.16 176.047 132.285 176.578 132.285C177.055 132.285 177.508 132.148 177.938 131.875C178.367 131.594 178.754 131.195 179.098 130.68C179.449 130.164 179.754 129.535 180.012 128.793C180.277 128.051 180.488 127.215 180.645 126.285L180.785 121.574C180.785 121.402 180.852 121.266 180.984 121.164C181.117 121.055 181.258 121 181.406 121H181.477C181.742 121.039 182.012 121.066 182.285 121.082C182.559 121.09 182.844 121.094 183.141 121.094C183.617 121.094 184.113 121.07 184.629 121.023C185.152 120.977 185.695 120.898 186.258 120.789C186.273 120.789 186.289 120.785 186.305 120.777C186.32 120.77 186.336 120.766 186.352 120.766C186.531 120.766 186.68 120.832 186.797 120.965C186.914 121.09 186.973 121.23 186.973 121.387ZM195.914 133.293C195.898 133.293 195.879 133.289 195.855 133.281C195.84 133.273 195.82 133.27 195.797 133.27C195.164 133.145 194.562 133.055 193.992 133C193.422 132.938 192.855 132.906 192.293 132.906C191.723 132.906 191.156 132.938 190.594 133C190.031 133.055 189.438 133.145 188.812 133.27C188.789 133.27 188.77 133.273 188.754 133.281C188.738 133.289 188.719 133.293 188.695 133.293C188.516 133.293 188.367 133.227 188.25 133.094C188.141 132.961 188.086 132.816 188.086 132.66C188.086 132.52 188.129 132.391 188.215 132.273C188.309 132.156 188.426 132.086 188.566 132.062C188.84 132 189.113 131.953 189.387 131.922C189.668 131.883 189.941 131.844 190.207 131.805V122.828C189.715 122.805 189.301 122.773 188.965 122.734C188.629 122.695 188.441 122.676 188.402 122.676C188.246 122.652 188.117 122.582 188.016 122.465C187.922 122.348 187.875 122.211 187.875 122.055C187.875 121.859 187.945 121.711 188.086 121.609C188.227 121.508 188.363 121.457 188.496 121.457H188.566C188.574 121.457 188.664 121.469 188.836 121.492C189.008 121.508 189.23 121.527 189.504 121.551C189.785 121.574 190.102 121.598 190.453 121.621C190.805 121.637 191.168 121.645 191.543 121.645C191.918 121.645 192.285 121.633 192.645 121.609C193.004 121.578 193.332 121.527 193.629 121.457H193.758C193.938 121.457 194.086 121.52 194.203 121.645C194.32 121.762 194.379 121.898 194.379 122.055L194.355 131.805C194.629 131.844 194.902 131.883 195.176 131.922C195.457 131.953 195.742 132 196.031 132.062C196.18 132.086 196.301 132.156 196.395 132.273C196.488 132.391 196.535 132.52 196.535 132.66C196.535 132.84 196.469 132.988 196.336 133.105C196.203 133.23 196.062 133.293 195.914 133.293ZM199.23 114.777C199.23 114.98 199.156 115.141 199.008 115.258L192.82 120.801C192.703 120.895 192.566 120.941 192.41 120.941C192.23 120.941 192.082 120.883 191.965 120.766C191.848 120.641 191.789 120.5 191.789 120.344C191.789 120.234 191.812 120.137 191.859 120.051L194.836 114.484C194.961 114.281 195.145 114.18 195.387 114.18H198.609C198.789 114.18 198.938 114.242 199.055 114.367C199.172 114.484 199.23 114.621 199.23 114.777Z" fill="white"/>
</svg>
