<svg width="37" height="38" viewBox="0 0 37 38" fill="none" xmlns="http://www.w3.org/2000/svg">
<ellipse cx="18.5" cy="19.3751" rx="18.5" ry="18.4681" fill="#9AD7D8"/>
<path d="M29.6649 12.4619C28.8288 12.8317 27.9419 13.0742 27.0338 13.1816C27.9903 12.6102 28.7062 11.7112 29.0478 10.6519C28.1487 11.1848 27.1648 11.56 26.1388 11.7613C25.7102 11.3049 25.1922 10.9412 24.617 10.6928C24.0418 10.4444 23.4216 10.3166 22.7948 10.3173C20.2649 10.3173 18.2134 12.3646 18.2134 14.8908C18.2134 15.2489 18.254 15.5983 18.3323 15.9333C14.5246 15.7425 11.149 13.9215 8.88935 11.1542C8.48192 11.8522 8.26783 12.6459 8.26904 13.4537C8.26844 14.2067 8.45417 14.9482 8.80973 15.6123C9.16529 16.2764 9.67966 16.8425 10.3072 17.2604C9.57975 17.2373 8.86837 17.0412 8.23221 16.6883C8.23163 16.7074 8.23163 16.7262 8.23163 16.7459C8.23163 18.9612 9.81068 20.8096 11.9062 21.2303C11.2315 21.4126 10.524 21.4394 9.83736 21.3084C10.4203 23.1251 12.1121 24.4478 14.1169 24.4848C12.494 25.7562 10.49 26.4458 8.42709 26.4427C8.05734 26.4427 7.69281 26.4213 7.33408 26.3788C9.42884 27.7224 11.8668 28.4355 14.3567 28.4331C22.7835 28.4331 27.3916 21.4645 27.3916 15.4214C27.3916 15.2234 27.387 15.0257 27.3783 14.8291C28.2757 14.1824 29.0501 13.3807 29.6649 12.4619Z" fill="white"/>
</svg>
