<svg width="100" height="96" viewBox="0 0 100 96" fill="none" xmlns="http://www.w3.org/2000/svg">
<g clip-path="url(#clip0_132_3648)">
<path d="M19.8904 24.1644H85.629C86.9611 24.1644 88.2783 24.4436 89.4958 24.9839C90.7134 25.5241 91.8042 26.3136 92.698 27.3012C93.5917 28.2889 94.2687 29.4528 94.6851 30.7181C95.1015 31.9834 95.2481 33.3219 95.1156 34.6473L92.2553 63.25C92.0201 65.6026 90.9191 67.7839 89.1661 69.3704C87.413 70.9569 85.1331 71.8355 82.7687 71.8356H37.2427C35.0378 71.8365 32.9007 71.0731 31.1954 69.6754C29.49 68.2778 28.3218 66.3322 27.8896 64.1701L19.8904 24.1644Z" stroke="black" stroke-width="11.2226" stroke-linejoin="round"/>
<path d="M19.8905 24.1644L16.0291 8.7046C15.7709 7.67372 15.1756 6.7587 14.3378 6.10487C13.5 5.45105 12.4677 5.09591 11.405 5.09589H5.58911" stroke="black" stroke-width="11.2226" stroke-linecap="round" stroke-linejoin="round"/>
<path d="M34.1919 90.9041H43.7261" stroke="black" stroke-width="11.2226" stroke-linecap="round" stroke-linejoin="round"/>
<path d="M72.3289 90.9041H81.8631" stroke="black" stroke-width="11.2226" stroke-linecap="round" stroke-linejoin="round"/>
<path d="M67.5554 44.8174C68.8627 44.8174 69.9225 43.7576 69.9225 42.4503C69.9225 41.143 68.8627 40.0832 67.5554 40.0832C66.248 40.0832 65.1882 41.143 65.1882 42.4503C65.1882 43.7576 66.248 44.8174 67.5554 44.8174Z" fill="black"/>
<path d="M49.197 44.8174C50.5043 44.8174 51.5641 43.7576 51.5641 42.4503C51.5641 41.143 50.5043 40.0832 49.197 40.0832C47.8896 40.0832 46.8298 41.143 46.8298 42.4503C46.8298 43.7576 47.8896 44.8174 49.197 44.8174Z" fill="black"/>
<path d="M58.0736 49.9725C56.187 49.9729 54.3277 50.4242 52.651 51.2889C50.9742 52.1536 49.5284 53.4066 48.4341 54.9435C48.2318 55.2277 48.1508 55.5807 48.2087 55.9248C48.2667 56.2688 48.4589 56.5757 48.7432 56.778C49.0274 56.9803 49.3804 57.0614 49.7244 57.0034C50.0685 56.9455 50.3754 56.7532 50.5777 56.469C51.4185 55.2879 52.5265 54.3222 53.8112 53.6504C55.096 52.9786 56.5213 52.6198 57.971 52.6031C59.4207 52.5864 60.8538 52.9124 62.1537 53.5545C63.4535 54.1966 64.5833 55.1366 65.4511 56.298C65.6604 56.577 65.9719 56.7615 66.3172 56.8108C66.6625 56.8601 67.0132 56.7703 67.2922 56.561C67.5712 56.3518 67.7557 56.0402 67.805 55.695C67.8543 55.3497 67.7645 54.999 67.5552 54.7199C66.4528 53.2458 65.0218 52.0491 63.3758 51.225C61.7298 50.4009 59.9143 49.972 58.0736 49.9725V49.9725Z" fill="black"/>
</g>
<defs>
<clipPath id="clip0_132_3648">
<rect width="99.9452" height="96" fill="white"/>
</clipPath>
</defs>
</svg>
